<?xml version="1.0" encoding="utf-8"?>
<svg version="1.1" id="Layer_1" xmlns="http://www.w3.org/2000/svg" xmlns:xlink="http://www.w3.org/1999/xlink" x="0px" y="0px"
	 viewBox="0 0 20 20" style="enable-background:new 0 0 20 20;" xml:space="preserve">
<g>
	<path d="M2.1,10c0-3.8,2.8-7.2,6.6-7.8c1.6-0.3,3,0,4.5,0.6c0.1,0,0.3,0,0.4,0c1.1-0.6,2.4-0.5,3.3,0.4c0.8,0.8,1.1,2.1,0.5,3.2
		c-0.1,0.2-0.1,0.3,0,0.5c2,4.7-0.8,9.9-5.7,10.9c-3,0.6-5.6-0.3-7.6-2.6C2.7,13.7,2.1,11.9,2.1,10z M16,7.6C16,7.6,15.9,7.6,16,7.6
		c-0.1,0-0.2,0-0.2,0c-1,0.3-2,0.1-2.8-0.6c-0.8-0.8-1-1.7-0.7-2.8c0.1-0.2,0-0.3-0.2-0.3C11.1,3.5,10,3.4,8.9,3.6
		c-3.5,0.6-5.9,4-5.3,7.5c0.6,3.3,3.7,5.6,6.9,5.3c1.8-0.2,3.3-0.9,4.4-2.3c1.2-1.4,1.6-3.1,1.4-5C16.3,8.6,16.2,8.1,16,7.6z
		 M15.7,4.9c0.3-0.2,0.5-0.4,0.4-0.7c-0.1-0.3-0.4-0.5-0.7-0.5c-0.4,0-0.8,0-1.1,0C14.1,3.7,14,3.8,14,4c0,0.7,0,1.4,0,2
		c0,0.2,0.1,0.3,0.3,0.3c0.4,0,0.8,0,1.2,0c0.5,0,0.7-0.3,0.7-0.7C16.1,5.2,16,5.1,15.7,4.9z"/>
	<path d="M10,6.2c0.4,0,0.7,0.2,0.9,0.5c0.8,1.6,1.5,3.2,2.3,4.7c0.2,0.5,0.1,0.9-0.4,1.1c-0.4,0.2-0.8,0-1-0.4
		c-0.1-0.2-0.2-0.4-0.3-0.6c-0.1-0.1-0.1-0.2-0.3-0.2c-0.8,0-1.6,0-2.4,0c-0.1,0-0.2,0.1-0.3,0.2c-0.1,0.2-0.2,0.4-0.3,0.6
		c-0.2,0.5-0.7,0.6-1.1,0.4c-0.4-0.2-0.6-0.6-0.3-1.1c0.7-1.4,1.3-2.7,2-4.1C8.9,7.2,9,7,9.1,6.8C9.3,6.4,9.6,6.2,10,6.2z M10,8.2
		C9.7,8.8,9.4,9.4,9.2,10c0.6,0,1.1,0,1.6,0C10.5,9.4,10.3,8.8,10,8.2z"/>
	<path d="M14.9,5.8c-0.1,0-0.2,0-0.2,0c-0.1,0-0.1-0.1-0.1-0.2c0-0.5-0.1-0.5,0.4-0.5c0.1,0,0.2,0,0.3,0c0.1,0.1,0.2,0.2,0.2,0.3
		c0,0.1-0.1,0.2-0.2,0.3C15.2,5.8,15.1,5.8,14.9,5.8C14.9,5.8,14.9,5.8,14.9,5.8z"/>
	<path d="M14.9,4.7c-0.4,0-0.4-0.1-0.4-0.5c0,0,0.1-0.1,0.1-0.1c0.2,0,0.4,0,0.6,0c0.2,0,0.3,0.1,0.2,0.3c0,0.1-0.1,0.2-0.2,0.3
		C15.2,4.8,15,4.7,14.9,4.7z"/>
</g>
</svg>
