<?xml version="1.0" encoding="utf-8"?>
<!-- Generator: Adobe Illustrator 23.1.1, SVG Export Plug-In . SVG Version: 6.00 Build 0)  -->
<svg version="1.1" id="Layer_1" xmlns="http://www.w3.org/2000/svg" xmlns:xlink="http://www.w3.org/1999/xlink" x="0px" y="0px"
	 viewBox="0 0 20 20" style="enable-background:new 0 0 20 20;" xml:space="preserve">
<style type="text/css">
	.st0{fill:#040404;}
	.st1{fill:#0E0F03;}
</style>
<g>
	<path class="st0" d="M10,18c-4.1,0-7.6-3.2-7.9-7.2c-0.3-4.3,2.5-8,6.7-8.7C10.2,1.9,11.6,2,13,2.6c0.3,0.1,0.5,0.1,0.7,0
		c1-0.5,2.3-0.3,3.1,0.5c0.8,0.8,1.1,2,0.5,3.1c-0.2,0.3-0.1,0.5,0,0.8C19.5,12.2,15.7,18,10,18z M10.1,3.4c-4.3,0-7.4,3.7-6.6,7.9
		c0.7,3.7,4.5,6.1,8.1,5.1c3.7-1,5.8-5,4.6-8.5c-0.1-0.2-0.1-0.4-0.5-0.3c-2.1,0.6-3.9-1.2-3.4-3.4c0.1-0.3,0-0.4-0.3-0.5
		C11.4,3.5,10.7,3.4,10.1,3.4z M14.1,5c0,0.3,0,0.7,0,1c0,0.2,0,0.3,0.2,0.3c0.3,0,0.7,0,1,0c0.5-0.1,0.8-0.6,0.5-1
		c-0.2-0.3-0.1-0.5-0.1-0.8c0.1-0.3-0.1-0.6-0.4-0.7c-0.4-0.1-0.8-0.2-1.2,0c-0.2,0.1-0.1,0.8-0.1,0.8C14.1,5.1,14.1,4.4,14.1,5z"/>
	<path class="st0" d="M12.9,12.7c-1.1,0.1-1.1,0.1-1.4-0.8c-0.2-0.5-0.4-0.7-1-0.6c0,0-1,0-1.1,0c-0.8,0-1.1,0.3-1.3,1.2
		c0,0.2-0.1,0.3-0.3,0.3c-0.3,0-0.5,0-0.8,0c0-0.4,0.2-0.6,0.3-0.9c0.6-1.7,1.3-3.4,1.9-5.1C9.3,6.4,10,6.4,10,6.4s0.5,0,0.6,0.4
		C11.3,8.8,12.1,10.7,12.9,12.7z M10.8,10.2c-0.3-0.8-0.6-1.5-0.9-2.4C9.6,8.6,9.3,9.3,9.1,10c-0.1,0.2,0,0.2,0.2,0.2
		C9.7,10.2,10.2,10.2,10.8,10.2z"/>
	<path class="st1" d="M15,5.8c-0.2,0-0.4,0-0.4-0.3c0-0.2,0-0.4,0.3-0.4c0.3,0,0.6,0,0.6,0.3C15.5,5.8,15.3,5.8,15,5.8z"/>
	<path class="st1" d="M14.9,4.7c-0.2,0-0.3-0.1-0.3-0.3c0-0.3,0.1-0.3,0.3-0.3c0.2,0,0.4,0,0.4,0.3C15.3,4.7,15.1,4.7,14.9,4.7z"/>
</g>
</svg>
